<svg width="40" height="41" viewBox="0 0 40 41" fill="none" xmlns="http://www.w3.org/2000/svg">
<path d="M25.3 11.6313C28.15 11.6313 30.5 14.2313 30.5 17.3813C30.5 20.7813 27.55 22.8813 24.75 25.3813C21.95 27.8813 20.5 29.2313 20 29.5313C19.45 29.1813 17.65 27.5313 15.25 25.3813C12.4 22.8813 9.5 20.7813 9.5 17.3813C9.5 14.2313 11.85 11.6313 14.7 11.6313C16.8 11.6313 17.95 12.6313 18.75 13.7813C19.7 15.0813 19.85 15.7313 20 15.7313C20.15 15.7313 20.3 15.0813 21.25 13.7813C22.05 12.6313 23.2 11.6313 25.3 11.6313V11.6313ZM25.3 10.1313C23.05 10.1313 21.35 11.0313 20 12.9313C18.65 11.0813 16.95 10.1813 14.7 10.1813C11 10.1313 8 13.3813 8 17.3813C8 21.0313 10.7 23.3813 13.3 25.6313C13.6 25.8813 13.95 26.1813 14.25 26.4813L15.4 27.4813C17.6 29.4313 18.7 30.4313 19.2 30.7313C19.45 30.8813 19.75 30.9813 20 30.9813C20.3 30.9813 20.55 30.8813 20.8 30.7313C21.3 30.4313 22.2 29.6313 24.7 27.3313L25.7 26.4313C26.05 26.1313 26.35 25.8313 26.7 25.5813C29.35 23.3813 32 21.0813 32 17.3813C32 13.3813 29 10.1313 25.3 10.1313V10.1313Z" fill="#262626"/>
</svg>
