<svg width="40" height="41" viewBox="0 0 40 41" fill="none" xmlns="http://www.w3.org/2000/svg">
<g clip-path="url(#clip0_318_2591)">
<path fill-rule="evenodd" clip-rule="evenodd" d="M31.75 31.6313L30.35 26.1313C31.25 24.4813 31.75 22.5813 31.75 20.5813C31.75 14.0813 26.5 8.8313 20 8.8313C13.5 8.8313 8.25 14.0813 8.25 20.5813C8.25 27.0813 13.5 32.3313 20 32.3313C22 32.3313 23.9 31.8313 25.55 30.9313L31.05 32.3313C31.45 32.4313 31.85 32.0313 31.75 31.6313ZM30.25 20.5813C30.25 22.5813 29.75 24.0813 28.95 25.5813C28.85 25.7813 28.8 26.0313 28.85 26.2813L29.9 30.4813L25.75 29.4313C25.5 29.3813 25.25 29.3813 25.05 29.5313C24.15 30.0313 22.45 30.8313 20.05 30.8313C14.35 30.8313 9.75 26.2313 9.75 20.5813C9.75 14.9313 14.35 10.3313 20 10.3313C25.65 10.3313 30.25 14.9313 30.25 20.5813Z" fill="#262626"/>
</g>
<defs>
<clipPath id="clip0_318_2591">
<rect width="24" height="24" fill="white" transform="translate(8 8.5813)"/>
</clipPath>
</defs>
</svg>
