<svg width="40" height="41" viewBox="0 0 40 41" fill="none" xmlns="http://www.w3.org/2000/svg">
<g clip-path="url(#clip0_318_2594)">
<path d="M31.9 10.4813C31.75 10.2313 31.5 10.0813 31.25 10.0813H8.75C8.45 10.1313 8.15 10.3313 8.05 10.5813C7.95 10.8313 8 11.1813 8.2 11.4313L16.15 19.2313L18.9 30.5313C18.95 30.8313 19.2 31.0313 19.5 31.0813H19.6C19.85 31.0813 20.1 30.9313 20.25 30.7313L31.85 11.2313C32.05 11.0313 32.05 10.7313 31.9 10.4813ZM10.6 11.6313H28.35L17 17.9313L10.6 11.6313ZM19.95 28.4313L17.75 19.2313L29.2 12.8813L19.95 28.4313Z" fill="#262626"/>
</g>
<defs>
<clipPath id="clip0_318_2594">
<rect width="24" height="24" fill="white" transform="translate(8 8.5813)"/>
</clipPath>
</defs>
</svg>
