<svg width="40" height="41" viewBox="0 0 40 41" fill="none" xmlns="http://www.w3.org/2000/svg">
<g filter="url(#filter0_d_346_2588)">
<path d="M19.7316 29.9532L19.9923 30.1191L20.2572 29.9601C20.5571 29.7802 21.0863 29.3278 21.8443 28.6554C22.2448 28.3001 22.7243 27.8694 23.2869 27.3641C23.812 26.8924 24.4096 26.3556 25.083 25.7543C25.4084 25.4638 25.7403 25.175 26.0723 24.8863C27.1376 23.9597 28.2029 23.033 29.0538 22.0452C30.1861 20.7307 31 19.2439 31 17.3813C31 14.0038 28.4723 11.1313 25.3 11.1313C24.1655 11.1313 23.2622 11.4029 22.5284 11.8474C21.8012 12.288 21.267 12.8822 20.8429 13.491C20.4455 14.0353 20.1822 14.4713 20 14.7967C19.8178 14.4713 19.5545 14.0353 19.1571 13.491C18.733 12.8822 18.1988 12.288 17.4716 11.8474C16.7378 11.4029 15.8345 11.1313 14.7 11.1313C11.5277 11.1313 9 14.0038 9 17.3813C9 19.2416 9.79923 20.7279 10.9265 22.0441C11.8091 23.0746 12.9256 24.0356 14.048 25.0017C14.3391 25.2522 14.6305 25.503 14.9183 25.7555C15.3529 26.1448 15.7686 26.5184 16.161 26.8712C16.8489 27.4894 17.4654 28.0436 17.9873 28.5057C18.7917 29.218 19.4147 29.7516 19.7316 29.9532ZM19.5961 13.2261L20.0054 13.787L20.4076 13.221C21.6681 11.4469 23.2191 10.6313 25.3 10.6313C28.6873 10.6313 31.5 13.6194 31.5 17.3813C31.5 20.8081 29.0683 22.9649 26.3941 25.1854C26.1389 25.3695 25.8935 25.5897 25.6647 25.7951C25.5646 25.8849 25.4678 25.9719 25.3746 26.0517L25.3745 26.0516L25.3655 26.0597L24.3655 26.9597L24.3655 26.9597L24.3615 26.9634C23.1108 28.114 22.2653 28.8848 21.6707 29.4051C21.0691 29.9315 20.7497 30.1784 20.5428 30.3026C20.3371 30.426 20.1771 30.4813 20 30.4813C19.865 30.4813 19.6535 30.4204 19.4572 30.3026C19.252 30.1795 18.8864 29.8863 18.2651 29.3474C17.8245 28.9653 17.2738 28.4762 16.5861 27.8655C16.322 27.6309 16.0377 27.3784 15.7317 27.1072L15.7281 27.104L14.591 26.1153C14.2784 25.804 13.9211 25.4981 13.6237 25.2502C10.9863 22.9679 8.5 20.7642 8.5 17.3813C8.5 13.6175 11.3128 10.6356 14.6932 10.6813L14.6932 10.6813H14.7C16.7826 10.6813 18.3356 11.4987 19.5961 13.2261Z" fill="url(#paint0_linear_346_2588)" stroke="#FF0000"/>
</g>
<defs>
<filter id="filter0_d_346_2588" x="4" y="8.5813" width="32" height="32" filterUnits="userSpaceOnUse" color-interpolation-filters="sRGB">
<feFlood flood-opacity="0" result="BackgroundImageFix"/>
<feColorMatrix in="SourceAlpha" type="matrix" values="0 0 0 0 0 0 0 0 0 0 0 0 0 0 0 0 0 0 127 0" result="hardAlpha"/>
<feOffset dy="4"/>
<feGaussianBlur stdDeviation="2"/>
<feComposite in2="hardAlpha" operator="out"/>
<feColorMatrix type="matrix" values="0 0 0 0 0 0 0 0 0 0 0 0 0 0 0 0 0 0 0.25 0"/>
<feBlend mode="normal" in2="BackgroundImageFix" result="effect1_dropShadow_346_2588"/>
<feBlend mode="normal" in="SourceGraphic" in2="effect1_dropShadow_346_2588" result="shape"/>
</filter>
<linearGradient id="paint0_linear_346_2588" x1="20" y1="10.1313" x2="20" y2="30.9813" gradientUnits="userSpaceOnUse">
<stop stop-color="#DE0046"/>
<stop offset="1" stop-color="#F7A34B"/>
</linearGradient>
</defs>
</svg>
