<svg width="40" height="41" viewBox="0 0 40 41" fill="none" xmlns="http://www.w3.org/2000/svg">
<path d="M20 22.0813C20.8284 22.0813 21.5 21.4097 21.5 20.5813C21.5 19.7529 20.8284 19.0813 20 19.0813C19.1716 19.0813 18.5 19.7529 18.5 20.5813C18.5 21.4097 19.1716 22.0813 20 22.0813Z" fill="#262626"/>
<path d="M14.5 22.0813C15.3284 22.0813 16 21.4097 16 20.5813C16 19.7529 15.3284 19.0813 14.5 19.0813C13.6716 19.0813 13 19.7529 13 20.5813C13 21.4097 13.6716 22.0813 14.5 22.0813Z" fill="#262626"/>
<path d="M25.5 22.0813C26.3284 22.0813 27 21.4097 27 20.5813C27 19.7529 26.3284 19.0813 25.5 19.0813C24.6716 19.0813 24 19.7529 24 20.5813C24 21.4097 24.6716 22.0813 25.5 22.0813Z" fill="#262626"/>
</svg>
