<svg width="22" height="22" viewBox="0 0 22 22" fill="none" xmlns="http://www.w3.org/2000/svg">
<g clip-path="url(#clip0_326_956)">
<path d="M16.5917 7.65409L13.2917 10.1749C13.0625 10.3583 12.7417 10.3583 12.5125 10.1749L10.0375 8.34159C9.30421 7.79159 8.25004 7.97492 7.74587 8.75409L4.62921 13.6583C4.30837 14.1166 4.90421 14.6666 5.36254 14.3458L8.70837 11.8249C8.93754 11.6416 9.25837 11.6416 9.48754 11.8249L11.9625 13.6583C12.6959 14.2083 13.75 14.0249 14.2542 13.2458L17.3709 8.34159C17.6459 7.83742 17.05 7.33325 16.5917 7.65409ZM11 0.458252C5.04171 0.458252 0.458374 4.81242 0.458374 10.6791C0.458374 13.7499 1.69587 16.4083 3.75837 18.2416C3.94171 18.3791 4.03337 18.6083 4.03337 18.8374L4.12504 20.7166C4.12504 21.1749 4.53754 21.5416 4.95004 21.5416C5.04171 21.5416 5.17921 21.5416 5.27087 21.4499L7.37921 20.5333C7.47087 20.4874 7.60837 20.4416 7.70004 20.4416C7.79171 20.4416 7.83754 20.4416 7.92921 20.4874C8.89171 20.7624 9.90004 20.8999 11 20.8999C16.9584 20.8999 21.5417 16.5458 21.5417 10.6791C21.5417 4.81242 16.9584 0.458252 11 0.458252ZM11 19.5249C10.0834 19.5249 9.16671 19.3874 8.29587 19.1583C8.11254 19.1124 7.92921 19.0666 7.70004 19.0666C7.37921 19.0666 7.10421 19.1124 6.78337 19.2499L5.40837 19.8458V18.7916C5.40837 18.1958 5.13337 17.6458 4.67504 17.2333C2.84171 15.5833 1.83337 13.2458 1.83337 10.6791C1.83337 5.63742 5.77504 1.83325 11 1.83325C16.225 1.83325 20.1667 5.63742 20.1667 10.6791C20.1667 15.7208 16.225 19.5249 11 19.5249Z" fill="#262626"/>
</g>
<defs>
<clipPath id="clip0_326_956">
<rect width="22" height="22" fill="white"/>
</clipPath>
</defs>
</svg>
