<svg width="45" height="40" viewBox="0 0 45 40" fill="none" xmlns="http://www.w3.org/2000/svg">
<g clip-path="url(#clip0_326_1174)">
<path fill-rule="evenodd" clip-rule="evenodd" d="M36.35 18.3L35.3 17.75C35.1 17.65 34.95 17.5 34.9 17.25C34.65 16.45 34.35 15.65 33.95 14.9C33.85 14.7 33.8 14.5 33.9 14.3L34.3 13.15C34.4 12.9 34.3 12.6 34.1 12.4L32.65 10.95C32.45 10.75 32.15 10.7 31.9 10.75L30.75 11.15C30.55 11.2 30.35 11.2 30.15 11.1C29.45 10.7 28.65 10.35 27.85 10.15C27.65 10.1 27.45 9.95 27.35 9.75L26.8 8.65C26.65 8.4 26.4 8.25 26.15 8.25H24.1C23.8 8.25 23.55 8.4 23.45 8.65L22.9 9.75C22.8 9.95 22.65 10.1 22.4 10.15C21.6 10.4 20.8 10.7 20.1 11.1C19.9 11.2 19.7 11.25 19.5 11.15L18.35 10.75C18.1 10.65 17.8 10.75 17.6 10.95L15.95 12.4C15.75 12.6 15.7 12.9 15.75 13.15L16.15 14.3C16.2 14.5 16.2 14.7 16.1 14.9C15.7 15.65 15.35 16.4 15.15 17.25C15.1 17.45 14.95 17.65 14.75 17.75L13.7 18.3C13.45 18.45 13.3 18.7 13.3 18.95V21C13.3 21.3 13.45 21.55 13.7 21.65L14.75 22.2C14.95 22.3 15.1 22.45 15.15 22.7C15.4 23.5 15.7 24.3 16.1 25.05C16.2 25.25 16.25 25.45 16.15 25.65L15.75 26.8C15.65 27.05 15.75 27.35 15.95 27.55L17.4 29C17.6 29.2 17.9 29.25 18.15 29.2L19.3 28.8C19.5 28.75 19.7 28.75 19.9 28.85C20.6 29.25 21.4 29.6 22.2 29.8C22.4 29.85 22.6 30 22.7 30.2L23.25 31.3C23.4 31.55 23.65 31.7 23.9 31.7H25.95C26.25 31.7 26.5 31.55 26.6 31.3L27.15 30.2C27.25 30 27.4 29.85 27.65 29.8C28.45 29.55 29.25 29.25 29.95 28.85C30.15 28.75 30.35 28.7 30.55 28.8L31.7 29.2C31.95 29.3 32.25 29.2 32.45 29L33.9 27.55C34.1 27.35 34.15 27.05 34.1 26.8L33.7 25.65C33.65 25.45 33.65 25.25 33.75 25.05C34.15 24.3 34.5 23.55 34.7 22.7C34.75 22.5 34.9 22.3 35.1 22.2L36.15 21.65C36.4 21.5 36.55 21.25 36.55 21V18.95C36.75 18.7 36.6 18.4 36.35 18.3V18.3ZM25 28.75C20.15 28.75 16.25 24.85 16.25 20C16.25 15.15 20.15 11.25 25 11.25C29.85 11.25 33.75 15.15 33.75 20C33.75 24.85 29.85 28.75 25 28.75Z" fill="#262626"/>
</g>
<defs>
<clipPath id="clip0_326_1174">
<rect width="24" height="24" fill="white" transform="translate(13 8)"/>
</clipPath>
</defs>
</svg>
